<?xml version="1.0" standalone="no"?>
<!DOCTYPE svg PUBLIC "-//W3C//DTD SVG 20010904//EN"
 "http://www.w3.org/TR/2001/REC-SVG-20010904/DTD/svg10.dtd">
<svg version="1.0" xmlns="http://www.w3.org/2000/svg"
 width="512.000000pt" height="512.000000pt" viewBox="0 0 512.000000 512.000000"
 preserveAspectRatio="xMidYMid meet">

<g transform="translate(0.000000,512.000000) scale(0.100000,-0.100000)"
fill="silver" stroke="none">
<path d="M2321 5110 c-1340 -130 -2361 -1283 -2318 -2620 13 -389 97 -726 268
-1069 249 -502 647 -900 1150 -1150 815 -406 1779 -350 2539 147 297 194 579
482 771 788 74 116 184 342 234 478 51 138 110 376 131 531 23 157 26 521 6
660 -59 415 -191 769 -410 1099 -92 140 -185 254 -315 385 -399 403 -895 653
-1462 737 -122 18 -466 26 -594 14z m594 -1211 c75 -14 120 -37 167 -86 136
-140 126 -437 -28 -813 -30 -74 -58 -143 -61 -152 -5 -17 19 -18 413 -18 472
0 470 0 532 -76 89 -107 57 -271 -64 -334 l-50 -27 26 -32 c48 -56 61 -136 38
-215 -14 -47 -84 -122 -122 -132 -32 -8 -32 -8 -2 -47 49 -66 60 -160 27 -232
-20 -46 -79 -102 -116 -111 -14 -3 -25 -7 -25 -9 0 -1 16 -29 35 -61 29 -48
35 -67 35 -113 0 -33 -8 -73 -19 -97 -24 -52 -91 -109 -144 -122 -29 -7 -254
-8 -703 -2 -712 9 -690 7 -741 62 -12 12 -26 36 -32 51 -8 19 -11 247 -11 694
0 653 0 668 21 709 30 64 129 165 346 355 185 164 266 248 299 312 11 20 19
82 25 201 10 190 22 261 46 288 19 21 29 22 108 7z m-1098 -1086 c19 -9 47
-34 61 -56 l27 -41 0 -686 0 -686 -27 -41 c-46 -70 -60 -73 -366 -73 -263 0
-270 1 -302 23 -18 12 -43 35 -54 50 -21 28 -21 34 -21 727 0 693 0 699 21
727 11 15 36 38 54 51 32 21 39 22 302 22 231 0 275 -2 305 -17z"/>
</g>
</svg>
