<svg width="223" height="34" viewBox="0 0 223 34" fill="none" xmlns="http://www.w3.org/2000/svg">
<g clip-path="url(#clip0)">
<path d="M34.2114 17.4401C34.2114 16.5951 35.002 16.0201 36.0613 16.0201C37.2624 16.0201 38.0531 16.4601 39.3556 17.3051C39.6648 17.5401 39.903 17.6101 40.1108 17.3351L41.4082 15.6451C41.4578 15.6006 41.4979 15.5469 41.5262 15.487C41.5546 15.4272 41.5707 15.3623 41.5735 15.2963C41.5763 15.2303 41.5659 15.1644 41.5427 15.1024C41.5196 15.0404 41.4842 14.9835 41.4386 14.9351C40.7139 14.1389 39.8256 13.5042 38.8329 13.0732C37.8402 12.6421 36.7657 12.4246 35.6812 12.4351C32.6656 12.4351 29.8528 14.2951 29.8528 17.4751C29.8528 23.0551 37.9618 22.0401 37.9618 24.6751C37.9618 25.7251 36.8975 26.0651 35.8028 26.0651C34.4648 26.0651 32.99 25.4201 31.6215 24.5651C31.3124 24.3301 31.0742 24.2601 30.8664 24.5351L29.5284 26.3951C29.4429 26.4872 29.3955 26.6076 29.3955 26.7326C29.3955 26.8575 29.4429 26.9779 29.5284 27.0701C30.3411 27.9486 31.3317 28.6491 32.4361 29.1262C33.5404 29.6034 34.734 29.8466 35.9396 29.8401C39.0262 29.8401 42.3509 27.9801 42.3509 24.7701C42.3712 18.6551 34.2114 20.1451 34.2114 17.4401Z" fill="url(#paint0_linear)"/>
<path d="M53.9275 12.805H51.5454V8.23999C51.5454 8.10738 51.492 7.9802 51.397 7.88644C51.302 7.79267 51.173 7.73999 51.0386 7.73999H47.5416C47.4072 7.73999 47.2783 7.79267 47.1832 7.88644C47.0882 7.9802 47.0348 8.10738 47.0348 8.23999V12.805H44.602C44.4676 12.805 44.3387 12.8577 44.2437 12.9514C44.1486 13.0452 44.0952 13.1724 44.0952 13.305V15.94C44.0952 16.0726 44.1486 16.1998 44.2437 16.2935C44.3387 16.3873 44.4676 16.44 44.602 16.44H46.9841V28.85C46.9841 28.9826 47.0375 29.1098 47.1325 29.2035C47.2276 29.2973 47.3565 29.35 47.4909 29.35H51.0386C51.173 29.35 51.302 29.2973 51.397 29.2035C51.492 29.1098 51.5454 28.9826 51.5454 28.85V16.46H53.9275C54.0619 16.46 54.1908 16.4073 54.2859 16.3135C54.3809 16.2198 54.4343 16.0926 54.4343 15.96V13.325C54.437 13.2577 54.4259 13.1905 54.4017 13.1275C54.3775 13.0645 54.3406 13.007 54.2932 12.9584C54.2459 12.9099 54.1891 12.8712 54.1262 12.8449C54.0634 12.8185 53.9958 12.8049 53.9275 12.805Z" fill="url(#paint1_linear)"/>
<path d="M72.3245 12.8052H69.1671C68.8579 12.8052 68.6906 13.0102 68.6602 13.3052L68.5589 14.8602C67.9375 14.1129 67.1586 13.508 66.2764 13.0875C65.3942 12.667 64.4298 12.441 63.4502 12.4252C58.7519 12.4252 55.3411 16.2802 55.3411 21.1152C55.3411 25.9502 58.7672 29.8052 63.4502 29.8052C64.4202 29.8085 65.3787 29.5979 66.2556 29.1887C67.1326 28.7795 67.9056 28.1821 68.5183 27.4402L68.6552 28.8602C68.6907 29.1652 68.8579 29.3602 69.162 29.3602H72.3245C72.459 29.3602 72.5879 29.3075 72.6829 29.2137C72.778 29.12 72.8314 28.9928 72.8314 28.8602V13.3152C72.8327 13.2487 72.8206 13.1826 72.7957 13.1208C72.7709 13.0589 72.7337 13.0026 72.6865 12.9551C72.6393 12.9076 72.583 12.8699 72.5209 12.8442C72.4587 12.8184 72.392 12.8052 72.3245 12.8052ZM63.9722 25.7602C61.4685 25.7602 59.6541 23.7602 59.6541 21.0902C59.6541 18.4202 61.4685 16.4902 63.9722 16.4902C66.4759 16.4902 68.2548 18.5902 68.2548 21.0902C68.2548 23.5902 66.4404 25.7602 63.9722 25.7602Z" fill="url(#paint2_linear)"/>
<path d="M89.0499 7.155C88.413 6.33778 87.5961 5.67411 86.661 5.21415C85.7259 4.75419 84.6971 4.50999 83.6523 4.5C80.0539 4.5 77.7225 6.295 77.7225 10V12.805H75.7307C75.5963 12.805 75.4674 12.8577 75.3723 12.9514C75.2773 13.0452 75.2239 13.1724 75.2239 13.305V15.94C75.2239 16.0726 75.2773 16.1998 75.3723 16.2936C75.4674 16.3873 75.5963 16.44 75.7307 16.44H77.7225V28.85C77.7225 28.9826 77.7759 29.1098 77.8709 29.2035C77.966 29.2973 78.0949 29.35 78.2293 29.35H81.7264C81.7929 29.35 81.8588 29.3371 81.9203 29.3119C81.9818 29.2868 82.0377 29.25 82.0847 29.2035C82.1318 29.1571 82.1691 29.102 82.1946 29.0413C82.2201 28.9807 82.2332 28.9157 82.2332 28.85V16.46H85.6238C85.7582 16.46 85.8871 16.4073 85.9822 16.3136C86.0772 16.2198 86.1306 16.0926 86.1306 15.96V13.325C86.1306 13.1924 86.0772 13.0652 85.9822 12.9714C85.8871 12.8777 85.7582 12.825 85.6238 12.825H82.2332V10.595C82.2332 9.34 82.5423 8.495 84.1844 8.495C85.1194 8.56774 86.0182 8.88344 86.7895 9.41C86.8672 9.46382 86.9628 9.48653 87.0568 9.47353C87.1509 9.46054 87.2365 9.41281 87.2963 9.34L89.0448 7.65C89.0807 7.61939 89.1096 7.58159 89.1296 7.53911C89.1495 7.49663 89.1601 7.45044 89.1606 7.40363C89.1611 7.35681 89.1514 7.31042 89.1324 7.26755C89.1133 7.22469 89.0851 7.18632 89.0499 7.155Z" fill="url(#paint3_linear)"/>
<path d="M97.0929 4.5C93.4945 4.5 91.1632 6.295 91.1632 10V12.805H89.1714C89.037 12.805 88.908 12.8577 88.813 12.9514C88.7179 13.0452 88.6646 13.1724 88.6646 13.305V15.94C88.6646 16.0726 88.7179 16.1998 88.813 16.2936C88.908 16.3873 89.037 16.44 89.1714 16.44H91.1632V28.85C91.1632 28.9826 91.2166 29.1098 91.3116 29.2035C91.4066 29.2973 91.5356 29.35 91.67 29.35H95.167C95.3014 29.35 95.4303 29.2973 95.5254 29.2035C95.6204 29.1098 95.6738 28.9826 95.6738 28.85V16.46H99.0644C99.1989 16.46 99.3278 16.4073 99.4228 16.3136C99.5179 16.2198 99.5713 16.0926 99.5713 15.96V13.325C99.5713 13.1924 99.5179 13.0652 99.4228 12.9714C99.3278 12.8777 99.1989 12.825 99.0644 12.825H95.689V10.595C95.689 9.34 95.9931 8.495 97.6403 8.495C98.5753 8.56774 99.4741 8.88344 100.245 9.41C100.321 9.45672 100.411 9.47534 100.499 9.46251C100.587 9.44968 100.668 9.40624 100.727 9.34L102.475 7.65C102.51 7.62164 102.539 7.58665 102.559 7.54712C102.58 7.50759 102.592 7.46433 102.596 7.41996C102.599 7.37559 102.593 7.33102 102.579 7.28892C102.564 7.24683 102.541 7.20808 102.511 7.175C101.874 6.35146 101.055 5.68236 100.116 5.21876C99.1768 4.75516 98.1429 4.50932 97.0929 4.5Z" fill="url(#paint4_linear)"/>
<path d="M107.584 17.4401C107.584 16.5951 108.37 16.0201 109.434 16.0201C110.635 16.0201 111.426 16.4601 112.728 17.3051C113.032 17.5401 113.276 17.6101 113.478 17.3351L114.781 15.6451C114.831 15.6009 114.871 15.5475 114.9 15.4878C114.929 15.4281 114.945 15.3634 114.949 15.2974C114.952 15.2313 114.942 15.1653 114.919 15.1031C114.897 15.0409 114.862 14.9838 114.816 14.9351C114.092 14.1389 113.203 13.5042 112.211 13.0732C111.218 12.6421 110.143 12.4246 109.059 12.4351C106.043 12.4351 103.23 14.2951 103.23 17.4751C103.23 23.0551 111.34 22.0401 111.34 24.6751C111.34 25.7251 110.275 26.0651 109.18 26.0651C107.842 26.0651 106.368 25.4201 104.999 24.5651C104.69 24.3301 104.447 24.2601 104.244 24.5351L102.906 26.3951C102.821 26.4872 102.773 26.6076 102.773 26.7326C102.773 26.8575 102.821 26.9779 102.906 27.0701C103.722 27.9447 104.714 28.6409 105.819 29.1137C106.924 29.5865 108.118 29.8254 109.322 29.8151C112.409 29.8151 115.734 27.9551 115.734 24.7451C115.744 18.6551 107.584 20.1451 107.584 17.4401Z" fill="url(#paint5_linear)"/>
<path d="M130.655 24.205C130.61 24.1488 130.553 24.1034 130.488 24.0722C130.423 24.041 130.352 24.0248 130.28 24.0248C130.207 24.0248 130.136 24.041 130.071 24.0722C130.006 24.1034 129.949 24.1488 129.905 24.205C129.435 24.678 128.874 25.0542 128.255 25.3117C127.637 25.5692 126.972 25.7029 126.301 25.705C123.767 25.705 121.983 23.745 121.983 21.14C121.983 18.535 123.767 16.575 126.301 16.575C126.956 16.582 127.603 16.7184 128.203 16.976C128.804 17.2337 129.346 17.6073 129.798 18.075C130.072 18.31 130.305 18.345 130.553 18.105L132.646 16.105C132.696 16.0608 132.737 16.0074 132.766 15.9477C132.795 15.888 132.811 15.8233 132.814 15.7573C132.818 15.6912 132.808 15.6252 132.785 15.563C132.762 15.5008 132.727 15.4437 132.682 15.395C131.879 14.4738 130.885 13.7343 129.766 13.227C128.647 12.7196 127.431 12.4563 126.2 12.455C121.365 12.455 117.629 16.275 117.629 21.145C117.629 26.015 121.365 29.835 126.2 29.835C127.448 29.8428 128.683 29.5841 129.82 29.0766C130.958 28.5692 131.97 27.8249 132.788 26.895C132.834 26.8462 132.869 26.7891 132.891 26.7269C132.914 26.6647 132.924 26.5987 132.921 26.5327C132.917 26.4666 132.901 26.4019 132.872 26.3422C132.843 26.2825 132.803 26.2291 132.753 26.185L130.655 24.205Z" fill="url(#paint6_linear)"/>
<path d="M151.297 12.8052H148.145C148.01 12.8052 147.881 12.8578 147.786 12.9516C147.691 13.0454 147.638 13.1726 147.638 13.3052L147.537 14.8602C146.916 14.1124 146.137 13.5071 145.255 13.0866C144.372 12.666 143.408 12.4403 142.428 12.4252C137.73 12.4252 134.319 16.2802 134.319 21.1152C134.319 25.9502 137.745 29.8052 142.428 29.8052C143.398 29.8085 144.357 29.5979 145.233 29.1887C146.11 28.7795 146.883 28.1821 147.496 27.4402L147.633 28.8602C147.633 28.9928 147.686 29.12 147.781 29.2137C147.876 29.3075 148.005 29.3602 148.14 29.3602H151.292C151.427 29.3602 151.556 29.3075 151.651 29.2137C151.746 29.12 151.799 28.9928 151.799 28.8602V13.3152C151.8 13.2491 151.788 13.1834 151.764 13.1219C151.739 13.0604 151.703 13.0043 151.656 12.9569C151.609 12.9095 151.554 12.8716 151.492 12.8456C151.43 12.8196 151.364 12.8058 151.297 12.8052ZM142.965 25.7602C140.461 25.7602 138.647 23.7602 138.647 21.0902C138.647 18.4202 140.461 16.4902 142.965 16.4902C145.469 16.4902 147.253 18.5902 147.253 21.0902C147.253 23.5902 145.433 25.7602 142.965 25.7602Z" fill="url(#paint7_linear)"/>
<path d="M164.737 12.4352C163.656 12.4372 162.594 12.7219 161.66 13.2603C160.726 13.7987 159.954 14.5715 159.421 15.5002L159.284 13.3352C159.284 13.2026 159.231 13.0754 159.136 12.9816C159.04 12.8879 158.912 12.8352 158.777 12.8352H155.417C155.283 12.8352 155.154 12.8879 155.059 12.9816C154.964 13.0754 154.91 13.2026 154.91 13.3352V28.8902C154.91 29.0228 154.964 29.15 155.059 29.2437C155.154 29.3375 155.283 29.3902 155.417 29.3902H158.914C159.048 29.3902 159.177 29.3375 159.272 29.2437C159.367 29.15 159.421 29.0228 159.421 28.8902V19.8052C159.421 19.0302 160.587 16.5602 163.126 16.5602C164.768 16.5602 166.278 17.5052 166.278 20.2452V28.8702C166.278 29.0028 166.331 29.13 166.427 29.2237C166.522 29.3175 166.65 29.3702 166.785 29.3702H170.282C170.416 29.3702 170.545 29.3175 170.64 29.2237C170.735 29.13 170.789 29.0028 170.789 28.8702V19.4352C170.804 15.0002 168.163 12.4352 164.737 12.4352Z" fill="url(#paint8_linear)"/>
<path d="M183.728 12.4352C182.647 12.4376 181.586 12.7225 180.653 13.2609C179.72 13.7993 178.948 14.5719 178.417 15.5002L178.28 13.3352C178.28 13.2026 178.226 13.0754 178.131 12.9816C178.036 12.8879 177.907 12.8352 177.773 12.8352H174.418C174.283 12.8352 174.154 12.8879 174.059 12.9816C173.964 13.0754 173.911 13.2026 173.911 13.3352V28.8902C173.911 29.0228 173.964 29.15 174.059 29.2437C174.154 29.3375 174.283 29.3902 174.418 29.3902H177.915C178.049 29.3902 178.178 29.3375 178.273 29.2437C178.368 29.15 178.422 29.0228 178.422 28.8902V19.8052C178.422 19.0302 179.587 16.5602 182.126 16.5602C183.769 16.5602 185.279 17.5052 185.279 20.2452V28.8702C185.279 29.0028 185.332 29.13 185.427 29.2237C185.522 29.3175 185.651 29.3702 185.786 29.3702H189.283C189.417 29.3702 189.546 29.3175 189.641 29.2237C189.736 29.13 189.79 29.0028 189.79 28.8702V19.4352C189.8 15.0002 187.159 12.4352 183.728 12.4352Z" fill="url(#paint9_linear)"/>
<path d="M200.838 12.4352C195.973 12.4352 192.369 16.2552 192.369 21.1252C192.369 25.9952 195.973 29.8152 201.213 29.8152C202.372 29.8213 203.521 29.6004 204.593 29.1652C205.665 28.73 206.638 28.0893 207.457 27.2802C207.731 27.0102 207.731 26.7802 207.488 26.5352L205.967 25.0802C205.724 24.8452 205.521 24.8452 205.212 25.0502C204.191 25.8097 202.943 26.2141 201.664 26.2002C199.029 26.2002 197.311 24.9452 196.865 22.7502H207.645C208.658 22.7502 208.846 22.0752 208.846 20.7502C208.826 16.2552 205.709 12.4352 200.838 12.4352ZM196.784 19.8402C197.159 17.5052 198.811 16.2202 200.863 16.2202C202.916 16.2202 204.497 17.5052 204.806 19.8402H196.784Z" fill="url(#paint10_linear)"/>
<path d="M222.439 13.21C221.798 12.7034 221 12.4298 220.178 12.435C218.151 12.435 216.783 13.55 215.891 15.14L215.754 13.315C215.718 13.01 215.551 12.815 215.247 12.815H211.922C211.788 12.815 211.659 12.8677 211.564 12.9615C211.469 13.0552 211.416 13.1824 211.416 13.315V28.87C211.416 29.0026 211.469 29.1298 211.564 29.2236C211.659 29.3173 211.788 29.37 211.922 29.37H215.414C215.549 29.37 215.678 29.3173 215.773 29.2236C215.868 29.1298 215.921 29.0026 215.921 28.87V20.075C215.921 18.05 217.295 16.49 219.418 16.49C219.897 16.4911 220.371 16.5722 220.822 16.73C220.893 16.7644 220.972 16.7828 221.051 16.7838C221.13 16.7849 221.209 16.7685 221.281 16.736C221.353 16.7035 221.417 16.6556 221.468 16.5958C221.52 16.536 221.557 16.4657 221.577 16.39L222.591 13.89C222.66 13.7794 222.683 13.6465 222.655 13.5196C222.626 13.3927 222.549 13.2816 222.439 13.21Z" fill="url(#paint11_linear)"/>
<path d="M12.7892 9.21185C13.605 9.28381 14.3696 9.63551 14.9499 10.2058C15.5302 10.7761 15.8895 11.529 15.9656 12.3336C15.9721 12.4203 16.0114 12.5014 16.0757 12.5608C16.14 12.6202 16.2246 12.6536 16.3127 12.6543H17.2618C17.3101 12.6544 17.3579 12.6447 17.4023 12.6259C17.4466 12.607 17.4866 12.5794 17.5197 12.5447C17.5528 12.51 17.5783 12.469 17.5947 12.4242C17.6111 12.3794 17.618 12.3317 17.615 12.2841C17.5396 11.2753 17.1599 10.3119 16.5248 9.51776C15.8897 8.72363 15.0283 8.13518 14.0513 7.82813C13.661 7.70294 13.2567 7.62517 12.8474 7.59653C12.7992 7.59324 12.7509 7.59984 12.7054 7.61592C12.6599 7.632 12.6184 7.65721 12.5833 7.68996C12.5482 7.7227 12.5204 7.76227 12.5016 7.80615C12.4828 7.85004 12.4735 7.89729 12.4742 7.94493V8.86543C12.4732 8.95158 12.5051 9.03494 12.5634 9.09907C12.6217 9.1632 12.7023 9.20344 12.7892 9.21185Z" fill="url(#paint12_linear)"/>
<path d="M11.7135 32.741C11.9163 32.9386 12.1899 33.0495 12.475 33.0495C12.7601 33.0495 13.0337 32.9386 13.2365 32.741C13.694 32.2995 24.4431 21.792 24.4431 12.6562C24.4027 9.55127 23.124 6.58699 20.8842 4.40534C18.6443 2.22368 15.6236 1.00026 12.476 1C9.3284 0.99974 6.3074 2.22266 4.06719 4.40395C1.82697 6.58523 0.547852 9.5493 0.506836 12.6543C0.506836 21.792 11.256 32.2995 11.7135 32.741ZM5.94663 12.6543C5.94602 11.4144 6.30813 10.2007 6.98947 9.15891C7.67082 8.11708 8.64245 7.29138 9.78775 6.78091C10.9331 6.27045 12.2033 6.09691 13.4462 6.28113C14.689 6.46535 15.8515 6.99951 16.7941 7.81948C17.7368 8.63944 18.4196 9.71038 18.7605 10.9037C19.1014 12.0971 19.086 13.3622 18.7161 14.5471C18.3462 15.732 17.6375 16.7865 16.6752 17.5838C15.7128 18.3812 14.5376 18.8876 13.2907 19.0423V20.7032H13.6298V25.9985C13.6173 26.2925 13.4902 26.5703 13.275 26.7739C13.0598 26.9776 12.7732 27.0913 12.475 27.0913C12.1768 27.0913 11.8901 26.9776 11.6749 26.7739C11.4597 26.5703 11.3326 26.2925 11.3202 25.9985V20.7052H11.6593V19.0443C10.0817 18.8481 8.63089 18.0907 7.5791 16.9142C6.52731 15.7377 5.94685 14.223 5.94663 12.6543Z" fill="url(#paint13_linear)"/>
</g>
<defs>
<linearGradient id="paint0_linear" x1="35.8732" y1="12.4347" x2="35.8732" y2="29.8402" gradientUnits="userSpaceOnUse">
<stop stop-color="#0098E8"/>
<stop offset="1" stop-color="#006FD6"/>
</linearGradient>
<linearGradient id="paint1_linear" x1="49.265" y1="7.73999" x2="49.265" y2="29.35" gradientUnits="userSpaceOnUse">
<stop stop-color="#0098E8"/>
<stop offset="1" stop-color="#006FD6"/>
</linearGradient>
<linearGradient id="paint2_linear" x1="64.0863" y1="12.4252" x2="64.0863" y2="29.8052" gradientUnits="userSpaceOnUse">
<stop stop-color="#0098E8"/>
<stop offset="1" stop-color="#006FD6"/>
</linearGradient>
<linearGradient id="paint3_linear" x1="82.1922" y1="4.5" x2="82.1922" y2="29.35" gradientUnits="userSpaceOnUse">
<stop stop-color="#0098E8"/>
<stop offset="1" stop-color="#006FD6"/>
</linearGradient>
<linearGradient id="paint4_linear" x1="95.6306" y1="4.5" x2="95.6306" y2="29.35" gradientUnits="userSpaceOnUse">
<stop stop-color="#0098E8"/>
<stop offset="1" stop-color="#006FD6"/>
</linearGradient>
<linearGradient id="paint5_linear" x1="109.253" y1="12.4347" x2="109.253" y2="29.8154" gradientUnits="userSpaceOnUse">
<stop stop-color="#0098E8"/>
<stop offset="1" stop-color="#006FD6"/>
</linearGradient>
<linearGradient id="paint6_linear" x1="125.275" y1="12.455" x2="125.275" y2="29.8351" gradientUnits="userSpaceOnUse">
<stop stop-color="#0098E8"/>
<stop offset="1" stop-color="#006FD6"/>
</linearGradient>
<linearGradient id="paint7_linear" x1="143.059" y1="12.4252" x2="143.059" y2="29.8052" gradientUnits="userSpaceOnUse">
<stop stop-color="#0098E8"/>
<stop offset="1" stop-color="#006FD6"/>
</linearGradient>
<linearGradient id="paint8_linear" x1="162.849" y1="12.4352" x2="162.849" y2="29.3902" gradientUnits="userSpaceOnUse">
<stop stop-color="#0098E8"/>
<stop offset="1" stop-color="#006FD6"/>
</linearGradient>
<linearGradient id="paint9_linear" x1="181.85" y1="12.4352" x2="181.85" y2="29.3902" gradientUnits="userSpaceOnUse">
<stop stop-color="#0098E8"/>
<stop offset="1" stop-color="#006FD6"/>
</linearGradient>
<linearGradient id="paint10_linear" x1="200.607" y1="12.4352" x2="200.607" y2="29.8153" gradientUnits="userSpaceOnUse">
<stop stop-color="#0098E8"/>
<stop offset="1" stop-color="#006FD6"/>
</linearGradient>
<linearGradient id="paint11_linear" x1="217.041" y1="12.4349" x2="217.041" y2="29.37" gradientUnits="userSpaceOnUse">
<stop stop-color="#0098E8"/>
<stop offset="1" stop-color="#006FD6"/>
</linearGradient>
<linearGradient id="paint12_linear" x1="15.0449" y1="7.5957" x2="15.0449" y2="12.6543" gradientUnits="userSpaceOnUse">
<stop stop-color="#0098E8"/>
<stop offset="1" stop-color="#006FD6"/>
</linearGradient>
<linearGradient id="paint13_linear" x1="12.475" y1="1" x2="12.475" y2="33.0495" gradientUnits="userSpaceOnUse">
<stop stop-color="#0098E8"/>
<stop offset="1" stop-color="#006FD6"/>
</linearGradient>
<clipPath id="clip0">
<rect width="223" height="33" fill="white" transform="translate(0 0.5)"/>
</clipPath>
</defs>
</svg>
